<?xml version="1.0" standalone="no"?>
<!DOCTYPE svg PUBLIC "-//W3C//DTD SVG 20010904//EN"
 "http://www.w3.org/TR/2001/REC-SVG-20010904/DTD/svg10.dtd">
<svg version="1.0" xmlns="http://www.w3.org/2000/svg"
 width="512.000000pt" height="512.000000pt" viewBox="0 0 512.000000 512.000000"
 preserveAspectRatio="xMidYMid meet">
<metadata>
Created by potrace 1.14, written by Peter Selinger 2001-2017
</metadata>
<g transform="translate(0.000000,512.000000) scale(0.100000,-0.100000)"
fill="#000000" stroke="none">
<path d="M2379 5116 c-2 -2 -40 -6 -83 -10 -44 -4 -82 -8 -85 -10 -3 -2 -31
-7 -61 -11 -30 -3 -75 -11 -100 -17 -25 -5 -56 -12 -70 -14 -14 -3 -72 -18
-129 -35 -464 -133 -906 -414 -1213 -769 -71 -82 -82 -96 -104 -125 -10 -15
-33 -46 -50 -69 -253 -340 -426 -793 -472 -1236 -14 -138 -6 -535 13 -615 2
-11 6 -36 9 -55 11 -83 73 -347 86 -365 4 -5 10 -23 14 -39 13 -55 79 -212
141 -338 373 -750 1109 -1272 1960 -1389 101 -14 492 -18 600 -6 1054 115
1933 872 2200 1892 65 249 80 375 80 680 0 214 -5 271 -42 455 -8 41 -16 84
-18 95 -33 170 -137 443 -249 650 -352 652 -998 1132 -1721 1280 -81 17 -94
19 -175 30 -25 4 -56 9 -70 11 -29 6 -456 15 -461 10z"/>
</g>
</svg>
